<svg xmlns="http://www.w3.org/2000/svg" width="860" height="36" viewBox="0 0 860 36">
  <!-- Terminal line background -->
  <rect width="860" height="36" fill="#1a1b1e"/>

  <!-- projects/ai/smolclaw (bold blue) -->
  <text x="14" y="23" font-family="'JetBrains Mono','Fira Code',Menlo,monospace" font-size="13" font-weight="bold" fill="#569cd6">projects/ai/smolclaw</text>

  <!-- main (green) -->
  <text x="178" y="23" font-family="'JetBrains Mono','Fira Code',Menlo,monospace" font-size="13" fill="#4ec9b0"> main</text>

  <!-- ✔ (green) -->
  <text x="216" y="23" font-family="'JetBrains Mono','Fira Code',Menlo,monospace" font-size="13" fill="#4ec9b0"> ✔</text>

  <!-- 2d1h (white) -->
  <text x="234" y="23" font-family="'JetBrains Mono','Fira Code',Menlo,monospace" font-size="13" fill="#cccccc"> 2d1h</text>

  <!-- | (dim grey) -->
  <text x="270" y="23" font-family="'JetBrains Mono','Fira Code',Menlo,monospace" font-size="13" fill="#555555"> |</text>

  <!-- Sonnet 4.6 effort:auto (grey) -->
  <text x="284" y="23" font-family="'JetBrains Mono','Fira Code',Menlo,monospace" font-size="13" fill="#6b7280"> Sonnet 4.6 effort:auto</text>

  <!-- $0.99 (white) -->
  <text x="464" y="23" font-family="'JetBrains Mono','Fira Code',Menlo,monospace" font-size="13" fill="#cccccc"> $0.99</text>

  <!-- ⊙14m (grey) -->
  <text x="510" y="23" font-family="'JetBrains Mono','Fira Code',Menlo,monospace" font-size="13" fill="#6b7280"> ⊙14m</text>

  <!-- 26k↑ (grey) -->
  <text x="552" y="23" font-family="'JetBrains Mono','Fira Code',Menlo,monospace" font-size="13" fill="#6b7280"> 26k↑</text>

  <!-- Battery bar: 16 thin-slice segments, 75% = 12 filled -->
  <!-- filled (green) -->
  <rect x="595" y="11" width="6" height="14" rx="1" fill="#4ade80"/>
  <rect x="603" y="11" width="6" height="14" rx="1" fill="#4ade80"/>
  <rect x="611" y="11" width="6" height="14" rx="1" fill="#4ade80"/>
  <rect x="619" y="11" width="6" height="14" rx="1" fill="#4ade80"/>
  <rect x="627" y="11" width="6" height="14" rx="1" fill="#4ade80"/>
  <rect x="635" y="11" width="6" height="14" rx="1" fill="#4ade80"/>
  <rect x="643" y="11" width="6" height="14" rx="1" fill="#4ade80"/>
  <rect x="651" y="11" width="6" height="14" rx="1" fill="#4ade80"/>
  <rect x="659" y="11" width="6" height="14" rx="1" fill="#4ade80"/>
  <rect x="667" y="11" width="6" height="14" rx="1" fill="#4ade80"/>
  <rect x="675" y="11" width="6" height="14" rx="1" fill="#4ade80"/>
  <rect x="683" y="11" width="6" height="14" rx="1" fill="#4ade80"/>
  <!-- empty (dark) -->
  <rect x="691" y="11" width="6" height="14" rx="1" fill="#2a2d2e"/>
  <rect x="699" y="11" width="6" height="14" rx="1" fill="#2a2d2e"/>
  <rect x="707" y="11" width="6" height="14" rx="1" fill="#2a2d2e"/>
  <rect x="715" y="11" width="6" height="14" rx="1" fill="#2a2d2e"/>

  <!-- 75% (green) -->
  <text x="724" y="23" font-family="'JetBrains Mono','Fira Code',Menlo,monospace" font-size="13" fill="#4ade80">  75%</text>
</svg>
